<svg xmlns="http://www.w3.org/2000/svg" viewBox="0 0 720 240" width="720" height="240">
  <defs><radialGradient id="g1" cx="30%" cy="30%" r="80%" fx="30%" fy="30%">
    <stop offset="0%" stop-color="#F5A589"/>
    <stop offset="70%" stop-color="#B8A4D4"/>
    <stop offset="100%" stop-color="#B8A4D4"/>
  </radialGradient></defs>
  
  <circle cx="246.33251953125" cy="120.0" r="36.0" fill="url(#g1)"/>
  <g fill="#FFFFFF" transform="translate(306.333,145.464)">
      <g transform="translate(0.000,0) scale(0.034180,-0.034180)"><path d="M165 0V1490H393V860H1131V1490H1360V0H1131V664H393V0Z"/></g>
      <g transform="translate(52.124,0) scale(0.034180,-0.034180)"><path d="M630 -23Q465 -23 345.0 48.0Q225 119 160.5 248.0Q96 377 96 551Q96 723 159.5 854.0Q223 985 339.0 1058.5Q455 1132 611 1132Q738 1132 852.5 1075.5Q967 1019 1038.5 895.5Q1110 772 1110 570V492H317Q323 330 409.0 244.5Q495 159 632 159Q724 159 790.5 199.0Q857 239 886 317L1093 268Q1053 137 931.0 57.0Q809 -23 630 -23ZM318 656H892Q880 788 809.5 869.0Q739 950 612 950Q480 950 403.5 863.5Q327 777 318 656Z"/></g>
      <g transform="translate(93.242,0) scale(0.034180,-0.034180)"><path d="M461 -25Q354 -25 268.5 14.5Q183 54 133.0 130.0Q83 206 83 316Q83 411 120.0 472.5Q157 534 219.0 569.5Q281 605 357.5 623.0Q434 641 513 650Q661 667 728.0 679.5Q795 692 795 751V757Q795 850 740.5 901.5Q686 953 581 953Q471 953 408.0 905.0Q345 857 322 800L115 854Q153 954 224.0 1015.0Q295 1076 386.5 1104.0Q478 1132 578 1132Q645 1132 721.0 1116.0Q797 1100 864.0 1058.5Q931 1017 973.0 940.0Q1015 863 1015 742V0H802V153H791Q758 87 677.5 31.0Q597 -25 461 -25ZM510 152Q599 152 663.0 187.5Q727 223 761.5 280.0Q796 337 796 403V546Q780 530 727.5 518.5Q675 507 617.0 499.0Q559 491 525 487Q432 474 365.5 436.5Q299 399 299 313Q299 233 358.5 192.5Q418 152 510 152Z"/></g>
      <g transform="translate(132.993,0) scale(0.034180,-0.034180)"><path d="M148 0V1118H361V938H373Q403 1029 480.5 1081.5Q558 1134 656 1134Q677 1134 704.5 1132.0Q732 1130 749 1128V918Q737 921 703.0 925.5Q669 930 634 930Q519 930 443.5 859.5Q368 789 368 679V0Z"/></g>
      <g transform="translate(160.063,0) scale(0.034180,-0.034180)"><path d="M564 -22Q428 -22 322.5 47.0Q217 116 156.5 246.0Q96 376 96 556Q96 738 157.0 867.0Q218 996 323.5 1064.0Q429 1132 564 1132Q668 1132 732.0 1097.5Q796 1063 831.5 1016.5Q867 970 886 936H898V1490H1118V0H904V175H886Q866 139 829.5 93.0Q793 47 729.0 12.5Q665 -22 564 -22ZM612 165Q752 165 827.0 274.0Q902 383 902 558Q902 732 828.0 838.5Q754 945 612 945Q515 945 450.5 894.0Q386 843 353.5 755.5Q321 668 321 558Q321 447 354.0 358.0Q387 269 452.0 217.0Q517 165 612 165Z"/></g>
  </g>
</svg>